# xmcd
# 
# Track frame offsets:
#     150
#     19627
#     33149
#     58458
# 
# Disc length: 1447
# 
# Revision: 0
# Processed by: cddbd v1.5.2PL0 Copyright (c) Steve Scherf et al.
# Submitted via: fre:ac v1.0.17
# 
DISCID=2b05a504
DTITLE=Panteon Rococo - Arreglame El Alma
DYEAR=0
DGENRE=Ska
TTITLE0=Arreglame El Alma
TTITLE1=Democracia Fecal
TTITLE2=Das Herz von St.Pauli
TTITLE3=Video: Arreglame El Alma
EXTD=Additionally video
EXTT0=
EXTT1=
EXTT2=
EXTT3=
PLAYORDER=
